<svg role="image" aria-labelledby="calendar-svg-icon" xmlns="http://www.w3.org/2000/svg" width="21" height="22" viewBox="0 0 21 22">
    <title id="calendar-svg-icon">Calendar</title>
    <g fill="none" fill-rule="evenodd">
        <path fill="#75787b" d="M20.17 6.825V1.714h-1.61v1.242c0 1.299-.972 2.355-2.17 2.355-1.197 0-2.17-1.056-2.17-2.355V1.714h-1.983v1.242c0 1.299-.973 2.355-2.17 2.355S7.896 4.255 7.896 2.956V1.714H5.95v1.242c0 1.299-.973 2.355-2.171 2.355-1.196 0-2.171-1.056-2.171-2.355V1.714h-1.61v5.11h20.17zM0 21.494h20.17V8.452H0z"/>
        <path fill="#75787b" d="M3.918 3.874h-.086a.775.775 0 0 1-.773-.773V.773c0-.425.347-.773.773-.773h.086c.426 0 .773.348.773.773v2.328a.775.775 0 0 1-.773.773M10.129 3.874h-.087a.775.775 0 0 1-.773-.773V.773c0-.425.348-.773.773-.773h.087c.425 0 .772.348.772.773v2.328a.775.775 0 0 1-.772.773M16.504 3.874h-.087a.775.775 0 0 1-.773-.773V.773c0-.425.348-.773.773-.773h.087c.425 0 .772.348.772.773v2.328a.775.775 0 0 1-.772.773"/>
        <path fill="#FFF" d="M8.275 17.322H6.747v-4.18c0-.087 0-.19.002-.31s.005-.246.01-.376l.015-.393c.006-.132.01-.25.013-.36-.017.02-.045.05-.085.09l-.133.13-.152.146a3.242 3.242 0 0 1-.155.132l-.83.667-.74-.918 2.326-1.854h1.257v7.226zM12.767 12.706c.31 0 .599.047.866.143.266.096.498.236.696.42.198.185.352.415.465.69a2.5 2.5 0 0 1 .167.946c0 .393-.06.744-.181 1.056a2.072 2.072 0 0 1-.54.79 2.422 2.422 0 0 1-.881.497 3.85 3.85 0 0 1-1.208.173 5.641 5.641 0 0 1-1.052-.096 3.698 3.698 0 0 1-.464-.12 2.395 2.395 0 0 1-.398-.174v-1.32c.114.066.25.128.4.185a4.639 4.639 0 0 0 .964.247c.165.025.32.038.47.038.44 0 .777-.092 1.008-.275.23-.182.346-.473.346-.872 0-.355-.113-.627-.338-.813-.226-.186-.575-.28-1.047-.28-.085 0-.177.006-.274.015a4.373 4.373 0 0 0-.286.04c-.093.017-.183.034-.27.052-.086.017-.16.037-.222.057l-.608-.327.272-3.682h3.815v1.295h-2.491l-.118 1.418c.105-.022.228-.045.368-.068.14-.023.32-.035.54-.035"/>
    </g>
</svg>
